<?xml version="1.0" encoding="utf-8"?>
<!-- Generator: Adobe Illustrator 17.0.0, SVG Export Plug-In . SVG Version: 6.00 Build 0)  -->
<!DOCTYPE svg PUBLIC "-//W3C//DTD SVG 1.1//EN" "http://www.w3.org/Graphics/SVG/1.1/DTD/svg11.dtd">
<svg version="1.1" xmlns="http://www.w3.org/2000/svg" xmlns:xlink="http://www.w3.org/1999/xlink" x="0px" y="0px" width="85px"
	 height="85px" viewBox="0 0 85 85" enable-background="new 0 0 85 85" xml:space="preserve">
<g id="Calque_1">
	<g id="Calque_2" display="none">
		<circle display="inline" fill="#F9B233" stroke="#F39200" stroke-width="3" stroke-miterlimit="10" cx="42.5" cy="42.5" r="24"/>
		<circle display="inline" fill="#F39200" cx="37.3" cy="34.7" r="1.8"/>
		<circle display="inline" fill="#F39200" cx="48" cy="34.7" r="1.8"/>
		
			<line display="inline" fill="none" stroke="#F39200" stroke-width="2" stroke-miterlimit="10" x1="31.4" y1="50.8" x2="54" y2="50.8"/>
		<circle display="inline" fill="none" stroke="#B2B2B2" stroke-width="3" stroke-miterlimit="10" cx="42.5" cy="42.5" r="28.5"/>
	</g>
	<g id="Calque_3">
		<circle fill="#2FAC66" stroke="#008D36" stroke-width="3" stroke-miterlimit="10" cx="42.5" cy="44.3" r="24"/>
		<path fill="none" stroke="#008D36" stroke-width="2" stroke-miterlimit="10" d="M30.5,50.6c0,0,11,17,23.7,0"/>
		<circle fill="#008D36" cx="47.9" cy="37.5" r="1.8"/>
		<circle fill="#008D36" cx="37.1" cy="37.5" r="1.8"/>
		<circle fill="none" stroke="#B2B2B2" stroke-width="3" stroke-miterlimit="10" cx="42.5" cy="44.3" r="28.5"/>
	</g>
</g>
<g id="Calque_4" display="none">
	<circle display="inline" fill="#E83B3B" stroke="#BE1622" stroke-width="3" stroke-miterlimit="10" cx="42.5" cy="42.5" r="24"/>
	<circle display="inline" fill="#BE1622" cx="37.1" cy="35.7" r="1.8"/>
	<circle display="inline" fill="#BE1622" cx="47.8" cy="35.7" r="1.8"/>
	<path display="inline" fill="none" stroke="#BE1622" stroke-width="2" stroke-miterlimit="10" d="M54.4,54.5c0,0-11-17-23.7,0"/>
	<circle display="inline" fill="none" stroke="#B2B2B2" stroke-width="3" stroke-miterlimit="10" cx="42.5" cy="42.5" r="28.5"/>
</g>
</svg>
